<?xml version="1.0" standalone="no"?>
<!DOCTYPE svg PUBLIC "-//W3C//DTD SVG 20010904//EN"
 "http://www.w3.org/TR/2001/REC-SVG-20010904/DTD/svg10.dtd">
<svg version="1.0" xmlns="http://www.w3.org/2000/svg"
 width="2512.000000pt" height="914.000000pt" viewBox="0 0 2512.000000 914.000000"
 preserveAspectRatio="xMidYMid meet">

<g transform="translate(0.000000,914.000000) scale(0.100000,-0.100000)"
fill="#000000" stroke="none">
<path d="M8234 7781 c-196 -121 -425 -367 -674 -726 -113 -163 -189 -286 -315
-515 -50 -91 -104 -187 -120 -215 -49 -86 -170 -266 -249 -370 -80 -105 -351
-409 -375 -419 -9 -4 -67 48 -165 147 -269 272 -469 421 -541 403 -13 -3 -203
-185 -422 -404 -219 -219 -410 -407 -424 -419 -165 -132 -450 -314 -624 -398
-81 -39 -101 -45 -158 -45 -42 0 -81 7 -110 19 -70 30 -229 133 -381 248 -77
58 -145 107 -153 110 -46 18 -508 -287 -767 -507 -97 -82 -302 -309 -424 -470
-24 -30 -79 -102 -123 -160 -44 -58 -119 -156 -167 -219 -123 -162 -270 -303
-437 -422 -77 -54 -145 -103 -150 -108 -6 -4 -15 -10 -20 -12 -6 -2 -48 -29
-95 -61 -128 -85 -530 -338 -537 -338 -3 0 -20 -10 -37 -23 -29 -22 -157 -99
-201 -122 -38 -20 -29 -41 37 -82 107 -66 181 -101 294 -139 104 -35 118 -37
294 -45 173 -7 416 -36 499 -59 20 -5 49 -10 65 -10 16 0 43 -4 60 -9 17 -6
81 -22 141 -36 61 -14 128 -30 150 -36 67 -18 377 -120 420 -139 22 -10 51
-21 65 -25 24 -7 24 -7 5 9 -11 8 -23 16 -28 16 -4 0 -26 9 -50 19 -157 73
-730 231 -833 231 -17 0 -44 4 -60 10 -44 14 -343 48 -489 55 -130 6 -202 21
-282 56 -24 11 -46 19 -50 19 -13 0 -123 59 -218 117 -26 15 -23 18 105 96
218 133 326 199 360 222 19 12 83 53 143 91 597 382 681 456 984 864 51 69
110 145 131 170 21 25 78 96 126 158 115 147 287 326 406 421 119 95 244 190
286 216 18 11 64 41 103 67 39 27 93 59 119 73 26 14 67 39 92 55 25 15 54 29
66 29 12 1 70 -37 133 -84 210 -159 365 -255 461 -284 111 -34 333 68 675 309
184 130 208 152 604 547 223 223 405 396 418 399 66 17 230 -103 488 -357
l190 -188 -45 -39 c-25 -22 -103 -91 -175 -153 -221 -193 -322 -297 -491 -504
-71 -87 -267 -347 -328 -435 -287 -416 -388 -544 -601 -756 -199 -198 -460
-420 -764 -649 -20 -15 -288 -223 -371 -288 -9 -7 -33 -25 -55 -41 -22 -17
-42 -33 -45 -36 -3 -3 -39 -31 -80 -62 -41 -31 -86 -67 -100 -80 -57 -53 -145
-103 -214 -122 -28 -8 -130 -42 -226 -76 -96 -33 -184 -63 -195 -66 -53 -13
-162 -48 -175 -55 -29 -16 -76 -37 -150 -67 -147 -60 -268 -121 -464 -236
-109 -64 -202 -116 -207 -116 -5 0 -9 -4 -9 -10 0 -5 -5 -10 -11 -10 -6 0 -41
-19 -77 -43 -37 -24 -86 -54 -109 -67 -41 -23 -55 -40 -32 -40 6 0 19 5 29 10
10 6 63 14 117 19 93 9 167 19 328 42 39 6 109 14 157 19 47 4 91 10 96 14 12
7 355 45 512 57 63 4 156 15 205 23 50 9 126 16 169 16 44 0 171 7 283 16 284
22 523 12 642 -28 21 -6 77 -52 145 -119 61 -59 131 -122 156 -140 25 -18 47
-35 50 -38 10 -12 120 -81 129 -81 5 0 11 -3 13 -7 6 -14 232 -120 283 -134
17 -4 62 -20 100 -34 39 -15 90 -30 115 -32 25 -3 50 -9 57 -15 6 -5 38 -12
70 -15 32 -3 85 -14 117 -24 34 -11 88 -19 126 -19 37 0 111 -7 166 -15 127
-19 410 -19 597 -1 78 8 187 17 242 21 55 3 132 13 170 21 39 8 106 14 150 15
44 0 121 7 170 14 l90 12 -91 2 c-51 0 -156 -6 -235 -15 -273 -29 -445 -45
-589 -55 -158 -10 -558 -2 -576 12 -6 5 -33 11 -60 14 -149 16 -291 41 -374
66 -36 11 -73 19 -83 19 -11 0 -33 6 -50 14 -18 7 -54 21 -82 31 -27 9 -68 25
-90 35 -123 56 -155 70 -164 70 -6 0 -11 4 -11 8 0 5 -19 18 -42 28 -23 10
-64 36 -90 57 -26 20 -50 37 -54 37 -11 0 -71 52 -168 145 -105 102 -161 145
-187 145 -10 0 -20 4 -23 9 -3 5 -37 9 -76 10 -38 1 -81 5 -94 11 -52 19 -148
21 -314 6 -95 -9 -221 -16 -280 -16 -100 0 -399 -26 -592 -51 -47 -6 -130 -15
-185 -19 -119 -10 -325 -35 -450 -54 -49 -8 -125 -17 -167 -21 -43 -3 -89 -10
-104 -15 -38 -15 -94 -13 -94 3 0 8 34 31 75 51 41 20 87 47 102 60 15 13 56
37 91 54 35 18 77 42 94 54 53 37 276 147 408 200 69 28 149 61 179 75 29 13
77 30 105 37 28 8 65 19 81 26 62 26 71 29 110 41 22 7 45 16 50 20 6 4 26 10
45 13 19 4 44 11 55 16 11 5 45 16 75 26 30 9 60 20 65 24 6 4 35 13 65 19 30
7 64 16 75 20 11 5 45 15 75 24 30 8 73 20 95 27 22 6 83 22 135 36 52 13 115
31 140 39 79 26 336 88 495 119 39 8 83 19 98 25 16 6 48 11 71 11 24 0 62 6
84 14 22 8 82 17 133 21 181 13 514 46 544 55 17 5 53 13 80 18 61 12 72 15
310 86 104 31 201 56 216 56 14 0 46 7 72 16 39 13 81 15 244 11 171 -3 208
-7 268 -27 118 -38 247 -105 389 -203 72 -49 278 -253 352 -347 82 -106 200
-227 259 -264 77 -49 236 -110 380 -144 175 -43 210 -50 280 -57 33 -3 96 -12
140 -20 98 -17 201 -31 365 -50 69 -8 141 -19 160 -25 19 -5 57 -10 83 -10 27
0 58 -5 70 -12 12 -6 53 -17 90 -24 77 -15 175 -65 250 -127 30 -26 62 -43 90
-48 96 -18 141 -30 147 -39 3 -5 3 -46 -1 -91 -7 -77 2 -186 16 -209 10 -15
74 -10 108 9 25 14 27 20 27 76 0 33 3 103 6 156 l7 97 36 11 c20 6 77 22 126
37 50 14 125 36 167 50 43 13 79 24 82 24 5 0 11 -106 25 -400 5 -102 12 -195
16 -207 11 -33 99 -57 131 -35 7 4 12 54 13 140 1 73 5 140 10 150 5 9 17 98
26 197 25 256 22 246 77 272 25 12 49 27 53 32 3 6 16 11 28 11 34 1 57 24 57
58 l0 31 -61 -30 c-74 -37 -89 -34 -84 19 6 65 42 121 150 234 56 58 127 139
157 180 31 40 106 124 167 187 61 63 111 120 111 127 0 8 3 14 8 14 4 0 26 17
49 38 23 20 70 63 105 94 104 93 141 132 182 189 21 30 58 68 81 86 l42 31 80
-44 c72 -39 88 -54 158 -145 60 -77 90 -106 127 -125 26 -13 48 -29 48 -34 0
-6 6 -10 14 -10 8 0 27 -16 43 -35 22 -28 35 -35 63 -35 398 4 613 8 692 15
80 6 102 4 129 -9 18 -9 44 -16 59 -16 20 0 36 -11 61 -42 19 -23 42 -50 52
-60 9 -10 17 -21 17 -24 0 -13 142 -186 192 -233 10 -9 25 -34 34 -56 17 -40
32 -62 97 -141 43 -52 45 -65 15 -106 -22 -31 -22 -31 -4 -132 9 -56 19 -140
23 -188 6 -86 7 -88 32 -90 39 -2 43 -2 84 5 l37 6 1 -42 c0 -51 31 -131 51
-135 18 -3 28 36 28 106 0 73 18 111 60 122 57 16 108 13 114 -7 3 -10 8 -101
11 -203 3 -102 10 -203 15 -225 5 -22 10 -93 10 -158 0 -82 5 -129 15 -154 14
-34 16 -35 33 -19 10 9 22 16 26 16 11 0 45 -43 46 -57 0 -7 11 -13 25 -13 13
0 28 -6 32 -14 4 -7 23 -17 42 -21 31 -7 33 -5 29 13 -3 12 0 29 6 38 12 15
14 15 29 -7 17 -23 17 -23 17 18 0 23 -4 45 -10 48 -5 3 -10 34 -10 67 0 34
-5 101 -11 150 -7 49 -9 92 -5 95 12 12 319 2 371 -12 28 -8 64 -15 80 -17 25
-3 31 -8 35 -35 4 -26 8 -31 20 -23 22 14 108 12 112 -2 6 -17 28 0 28 23 0
22 32 25 92 9 46 -13 53 -24 35 -51 -14 -18 -12 -26 14 -77 16 -31 39 -84 51
-117 22 -56 25 -60 58 -63 19 -1 63 -9 98 -18 150 -39 230 24 186 147 -12 32
-30 59 -49 72 -43 31 -58 47 -50 55 11 11 114 8 190 -7 39 -7 108 -17 155 -22
161 -16 335 -38 425 -53 50 -9 110 -16 135 -16 25 0 61 -4 80 -10 19 -5 85
-14 145 -20 61 -5 137 -15 170 -21 33 -5 101 -14 150 -19 251 -23 355 -35 506
-59 37 -6 95 -11 130 -11 35 0 113 -7 173 -16 90 -13 175 -15 500 -11 432 5
509 12 801 77 28 6 61 13 75 16 77 17 358 107 400 129 14 7 68 30 120 50 52
20 109 43 125 50 43 19 108 42 200 71 44 14 98 32 120 40 23 7 52 14 65 14 14
0 49 9 78 20 29 11 67 20 85 20 18 0 48 5 67 10 110 32 440 76 755 100 77 6
174 15 215 20 99 12 993 18 1485 9 221 -3 468 -13 570 -22 99 -9 232 -17 295
-17 63 0 135 -5 159 -11 24 -5 130 -14 235 -20 105 -5 214 -13 241 -19 28 -5
109 -12 180 -15 72 -4 150 -10 175 -15 78 -15 240 -22 240 -11 0 6 -6 11 -13
11 -7 0 -94 40 -193 89 -98 48 -251 123 -339 166 -429 206 -866 430 -904 463
-23 19 -70 67 -103 106 -136 159 -475 507 -584 600 -40 34 -106 79 -148 101
-43 22 -82 46 -88 53 -6 6 -14 12 -18 12 -4 0 -72 39 -151 86 -153 91 -179
108 -274 170 -33 21 -64 41 -70 43 -14 6 -152 96 -260 171 -83 57 -155 113
-187 143 -34 32 -297 210 -433 292 -44 27 -148 90 -232 140 -182 111 -245 142
-373 185 -61 20 -93 33 -165 65 -16 7 -68 29 -115 49 -47 19 -113 49 -148 66
-34 16 -64 30 -66 30 -10 0 -151 84 -154 91 -2 5 -9 9 -16 9 -14 0 -145 133
-176 180 -73 110 -554 632 -638 693 -91 66 -244 127 -319 127 -62 0 -45 -16
24 -24 68 -8 181 -48 238 -85 22 -14 69 -52 105 -86 60 -56 382 -400 443 -473
30 -38 35 -82 12 -122 -8 -14 -14 -42 -15 -62 0 -53 -47 -145 -79 -156 -49
-16 -94 3 -161 68 -21 21 -179 136 -237 173 -74 48 -167 97 -180 97 -4 0 -23
-31 -41 -69 -18 -37 -42 -78 -52 -89 -11 -12 -20 -25 -20 -30 0 -4 -20 -27
-45 -50 -41 -37 -51 -42 -94 -42 -45 0 -53 4 -91 43 -24 23 -75 83 -115 132
-128 160 -178 191 -354 216 -35 4 -68 13 -75 18 -6 5 -45 14 -87 20 -42 6 -88
15 -103 21 -15 5 -49 10 -74 10 -27 0 -57 7 -69 15 -12 9 -59 21 -103 27 -73
11 -81 14 -78 33 2 14 14 22 43 29 22 4 63 16 90 26 28 9 111 36 185 60 178
56 188 59 237 81 24 11 48 19 55 19 18 0 146 63 221 108 70 43 106 58 160 67
38 6 52 25 17 25 -32 0 -132 -41 -195 -81 -103 -64 -214 -110 -435 -181 -36
-11 -87 -29 -115 -38 -27 -10 -90 -30 -140 -45 -49 -14 -99 -30 -110 -35 -11
-5 -33 -11 -50 -14 -35 -5 -94 -21 -182 -47 -34 -11 -73 -19 -86 -19 -12 0
-28 -5 -35 -12 -6 -6 -30 -14 -54 -18 -63 -11 -178 -41 -215 -57 -17 -7 -43
-13 -57 -13 -14 0 -49 -9 -78 -20 -30 -11 -77 -20 -109 -20 -58 0 -59 0 -254
105 -36 20 -93 50 -127 69 -208 110 -370 212 -436 272 -47 42 -292 156 -397
184 -16 4 -50 14 -75 23 -25 8 -69 18 -99 22 -30 3 -63 11 -73 16 -13 7 -27 5
-49 -6 -45 -24 -165 -15 -254 18 -204 76 -372 201 -630 472 -173 181 -265 262
-460 402 -163 117 -238 165 -390 252 -60 35 -126 73 -145 84 -99 57 -163 87
-184 87 -13 0 -67 -20 -119 -44 -52 -25 -125 -58 -163 -74 -38 -16 -123 -55
-189 -86 -66 -32 -138 -66 -160 -76 -127 -58 -487 -238 -585 -293 -63 -35
-171 -95 -240 -134 -69 -38 -156 -88 -194 -111 -37 -23 -69 -42 -71 -42 -2 0
-39 -21 -82 -46 -43 -26 -159 -93 -258 -149 -99 -56 -218 -124 -265 -151 -138
-79 -176 -98 -193 -91 -13 5 -100 130 -240 347 -112 174 -245 344 -367 468
-95 98 -214 236 -288 333 -92 122 -172 232 -217 298 -69 102 -72 106 -140 196
-33 44 -76 103 -95 132 -69 102 -166 219 -251 305 -67 66 -104 94 -161 122
-41 20 -84 36 -94 36 -11 0 -56 -22 -100 -49z m153 7 c115 -43 291 -223 465
-474 29 -42 62 -89 73 -104 11 -15 29 -40 40 -56 11 -16 25 -35 32 -42 7 -8
18 -23 25 -35 22 -41 252 -355 332 -452 27 -33 70 -82 96 -110 240 -256 261
-281 272 -318 7 -24 20 -42 33 -47 12 -5 44 -39 70 -77 27 -37 52 -70 55 -73
4 -3 9 -9 11 -15 13 -32 310 -475 373 -555 79 -103 174 -188 243 -221 116 -54
233 -37 453 69 180 87 238 112 252 112 9 0 32 7 51 15 52 22 168 19 246 -5
178 -56 308 -153 649 -482 96 -94 120 -128 88 -128 -7 0 -24 8 -37 18 -42 31
-75 44 -105 40 -22 -2 -28 -8 -26 -21 6 -36 -55 -76 -72 -48 -7 11 22 23 35
15 5 -3 9 2 9 10 0 18 -45 22 -56 5 -4 -7 -22 -9 -49 -5 -38 6 -44 4 -59 -19
-10 -16 -23 -24 -32 -21 -24 9 -45 -5 -39 -25 4 -11 2 -19 -3 -19 -6 0 -16
-16 -24 -36 -14 -33 -13 -40 4 -75 21 -44 23 -75 6 -86 -7 -4 -38 -8 -68 -8
l-55 0 0 -43 c0 -64 -52 -87 -77 -34 -9 18 -22 28 -42 30 -16 2 -50 21 -76 43
-54 45 -70 49 -70 15 0 -36 -13 -39 -62 -11 -44 25 -78 32 -78 16 0 -5 5 -22
10 -37 8 -21 7 -31 -5 -44 -19 -21 -19 -46 0 -54 13 -4 15 -19 13 -68 l-3 -63
-36 -3 c-30 -3 -42 3 -73 32 -20 20 -36 40 -36 46 0 19 -35 10 -45 -12 -14
-33 -57 -31 -65 2 -5 23 -11 25 -73 28 -72 3 -83 14 -47 47 11 10 20 27 20 38
0 18 -5 19 -44 14 -35 -5 -47 -2 -65 14 -22 21 -27 44 -11 54 19 12 11 51 -13
64 -45 24 -134 5 -210 -45 -41 -27 -59 -33 -104 -33 -30 0 -57 -2 -60 -5 -9
-9 -45 14 -40 27 2 6 32 22 68 37 l64 25 0 45 c0 38 3 45 20 45 13 0 21 -8 23
-22 2 -14 12 -25 27 -29 64 -16 105 26 45 47 -48 17 -37 48 29 81 65 32 96 61
88 82 -11 27 -68 20 -113 -14 -50 -38 -64 -38 -64 0 0 43 -32 40 -60 -5 -23
-38 -45 -44 -76 -20 -10 8 -27 15 -36 15 -9 0 -29 7 -45 16 -26 15 -32 16 -63
2 -19 -9 -42 -19 -50 -22 -19 -8 -51 -28 -68 -44 -19 -17 -72 -16 -72 2 0 8 9
16 20 18 31 5 29 23 -2 26 -22 3 -28 -1 -28 -17 0 -27 -38 -52 -67 -45 -14 4
-23 2 -23 -5 0 -6 5 -11 10 -11 6 0 10 -4 10 -10 0 -5 -6 -10 -14 -10 -27 0
-27 -68 1 -135 29 -71 26 -101 -10 -90 -12 4 -37 9 -54 12 -28 4 -33 2 -33
-14 0 -10 5 -24 11 -30 14 -14 3 -33 -19 -33 -9 0 -36 -9 -58 -19 -48 -22 -59
-18 -68 26 -9 38 -32 50 -46 23 -19 -36 -76 -29 -133 17 -33 27 -59 29 -77 8
-18 -22 -6 -41 39 -61 23 -10 41 -21 41 -26 0 -4 -18 -13 -40 -19 -43 -13 -50
-31 -24 -60 15 -17 15 -21 -12 -53 -39 -47 -49 -49 -101 -26 -25 11 -54 20
-64 20 -20 0 -25 -15 -9 -25 16 -10 12 -42 -6 -49 -45 -17 -78 -6 -119 41 -42
48 -65 51 -65 10 0 -38 -14 -51 -39 -36 -11 8 -21 17 -21 21 0 4 -9 12 -20 18
-30 16 -60 -7 -60 -45 0 -56 -26 -74 -157 -110 -89 -25 -275 -114 -350 -168
-40 -29 -113 -89 -163 -135 -50 -46 -96 -82 -102 -80 -8 3 -11 40 -9 116 4
179 -28 258 -202 504 -125 176 -139 200 -160 285 -26 104 0 177 159 463 62
110 99 184 157 311 19 43 61 107 93 146 33 39 66 83 74 99 8 16 24 43 35 59
30 42 68 110 143 255 109 214 132 241 186 220 43 -17 120 -117 301 -390 17
-25 32 -47 35 -50 3 -3 23 -32 44 -65 106 -164 173 -232 200 -205 7 7 1 10
-14 10 -30 0 -54 32 -255 330 -230 342 -279 400 -335 400 -51 0 -68 -24 -213
-315 -28 -55 -64 -120 -81 -145 -17 -25 -35 -53 -41 -62 -66 -111 -114 -163
-108 -117 4 30 34 135 43 151 6 10 10 66 10 125 l0 108 -93 28 c-165 51 -254
87 -339 136 -70 40 -74 61 -25 148 65 115 156 338 223 548 14 44 32 96 39 115
17 46 46 146 56 190 4 19 21 89 38 155 17 66 31 137 31 158 0 21 5 48 12 60 6
12 17 86 23 164 11 131 22 173 45 173 5 0 34 -10 67 -22z m4385 -946 c18 -10
56 -31 83 -47 28 -15 70 -39 95 -53 292 -163 630 -402 779 -552 47 -47 120
-121 161 -164 156 -164 363 -336 405 -336 21 0 50 -39 38 -51 -16 -16 -348 -8
-365 9 -6 6 -25 12 -41 12 -31 0 -154 39 -224 71 -24 10 -46 19 -49 19 -4 0
-41 15 -83 34 -42 19 -92 37 -112 41 -33 6 -38 3 -70 -37 -20 -24 -48 -74 -64
-113 -16 -38 -32 -74 -36 -80 -3 -5 -10 -28 -14 -50 -8 -46 -21 -65 -44 -65
-17 0 -182 80 -261 126 -165 96 -270 174 -388 288 -92 89 -141 122 -211 143
-137 40 -332 -33 -497 -186 -88 -81 -171 -121 -255 -121 -121 0 -304 74 -404
163 -30 27 -55 53 -55 58 0 5 -14 32 -31 60 -27 43 -30 53 -18 65 8 7 73 46
144 85 72 40 148 82 170 94 204 115 566 297 780 390 22 10 92 43 155 72 124
59 240 113 280 131 38 17 96 14 132 -6z m-621 -2035 c-1 -4 -3 -7 -6 -7 -3 0
-15 0 -27 1 -22 0 -22 1 -3 9 22 9 37 8 36 -3z m-1841 -11 c0 -16 -37 -32 -48
-21 -7 7 25 35 40 35 4 0 8 -6 8 -14z m-99 -120 l-21 -20 0 28 c0 16 8 35 18
42 15 11 17 10 20 -8 2 -11 -6 -30 -17 -42z m2140 -11 c17 -27 27 -35 51 -35
36 0 68 -16 68 -34 0 -7 -20 -19 -45 -26 -25 -7 -50 -21 -56 -31 -6 -12 -21
-19 -40 -19 -23 0 -32 6 -40 27 -8 21 -6 30 11 48 18 19 19 26 9 48 -12 27 -7
57 11 57 6 0 20 -16 31 -35z m-1910 -28 c-1 -12 -15 -9 -19 4 -3 6 1 10 8 8 6
-3 11 -8 11 -12z m4519 -29 c0 -12 -7 -10 -24 8 -9 8 -13 20 -10 26 7 11 34
-17 34 -34z m-2180 -83 c0 -8 -7 -15 -15 -15 -16 0 -20 12 -8 23 11 12 23 8
23 -8z m-2100 -100 c0 -8 -4 -15 -10 -15 -5 0 -10 7 -10 15 0 8 5 15 10 15 6
0 10 -7 10 -15z m902 -10 c0 -5 -5 -11 -11 -13 -6 -2 -11 4 -11 13 0 9 5 15
11 13 6 -2 11 -8 11 -13z m18 -36 c0 -18 -2 -19 -15 -9 -15 12 -12 30 6 30 5
0 9 -10 9 -21z m3340 1 c0 -5 -4 -10 -10 -10 -5 0 -10 5 -10 10 0 6 5 10 10
10 6 0 10 -4 10 -10z m1198 -230 c22 -11 45 -20 51 -20 14 0 254 -124 344
-178 42 -26 85 -51 95 -57 9 -5 84 -52 166 -103 278 -175 386 -229 501 -252
70 -14 179 -40 226 -55 26 -8 58 -15 72 -15 14 0 38 -5 54 -11 15 -6 60 -17
98 -25 146 -29 183 -36 275 -55 52 -11 123 -27 157 -35 34 -8 74 -14 90 -14
16 0 53 -7 83 -16 29 -9 81 -17 114 -19 68 -4 149 -40 226 -101 25 -20 63 -50
84 -68 22 -17 103 -85 179 -151 77 -66 172 -146 211 -178 39 -32 78 -65 86
-75 15 -16 103 -93 159 -138 13 -10 45 -37 71 -59 25 -22 66 -53 89 -70 75
-53 86 -63 79 -70 -4 -4 -69 -11 -145 -16 -162 -9 -146 -7 -138 -19 8 -13 142
-13 150 0 4 6 15 6 32 -1 18 -6 43 -6 77 1 28 5 95 14 149 19 54 5 104 14 110
19 7 5 32 12 57 16 26 4 84 20 130 37 47 16 94 33 105 36 11 3 56 25 100 48
44 23 98 48 120 55 22 7 46 17 53 23 36 28 687 26 837 -3 28 -5 98 -14 156
-19 58 -6 126 -15 150 -20 24 -5 87 -17 139 -27 52 -9 131 -24 175 -34 44 -10
116 -26 160 -35 254 -53 549 -164 740 -279 48 -29 469 -245 570 -293 28 -13
61 -31 75 -39 14 -8 77 -39 140 -70 63 -30 123 -59 133 -65 36 -19 56 -29 222
-109 440 -212 489 -240 418 -240 -16 0 -52 6 -79 14 -27 8 -110 17 -184 20
-74 3 -180 10 -235 15 -55 5 -147 12 -205 16 -58 3 -152 13 -210 20 -58 8
-190 17 -295 19 -104 3 -221 7 -260 11 -235 19 -465 23 -1085 19 -678 -5 -809
-9 -1150 -39 -91 -9 -196 -18 -235 -21 -38 -3 -108 -12 -155 -20 -47 -9 -110
-19 -140 -24 -116 -17 -189 -33 -317 -66 -72 -19 -140 -34 -151 -34 -12 0 -23
-4 -27 -9 -3 -6 -27 -13 -53 -17 -26 -4 -67 -16 -92 -26 -25 -11 -54 -23 -65
-28 -11 -4 -42 -17 -70 -28 -27 -12 -86 -36 -130 -53 -44 -17 -84 -35 -89 -40
-6 -5 -19 -9 -31 -9 -12 0 -25 -4 -30 -8 -21 -18 -295 -102 -415 -128 -36 -7
-87 -19 -115 -25 -27 -7 -66 -13 -85 -14 -19 -1 -42 -4 -50 -8 -58 -23 -400
-38 -735 -31 -322 7 -325 7 -440 23 -92 14 -357 42 -470 51 -102 8 -322 36
-405 51 -30 5 -95 14 -145 18 -88 9 -146 16 -355 47 -58 9 -148 20 -200 24
-52 5 -104 11 -115 14 -11 3 -76 12 -145 20 -69 9 -145 18 -170 22 -25 3 -76
9 -115 12 -38 4 -75 11 -82 15 -7 4 -88 14 -180 23 -92 8 -169 17 -171 19 -2
2 -6 129 -8 282 -3 242 -2 288 14 347 15 61 22 71 52 87 19 11 55 19 81 19 25
0 72 9 104 20 32 11 70 20 84 20 15 0 71 12 126 26 55 15 125 32 155 39 101
23 254 81 329 125 83 48 161 115 161 137 0 8 5 11 11 8 9 -6 60 27 109 72 36
33 136 102 148 103 6 0 12 5 12 10 0 6 19 23 43 38 23 15 57 42 76 60 18 18
38 32 45 32 6 0 17 9 24 20 7 11 35 34 62 51 28 17 50 34 50 38 0 4 12 14 27
22 16 8 37 23 48 34 21 20 27 25 118 74 131 72 162 90 165 100 5 15 -63 -10
-135 -50 -97 -53 -256 -168 -456 -329 -65 -52 -129 -102 -141 -110 -33 -22
-106 -80 -149 -117 -20 -18 -42 -33 -47 -33 -10 0 -9 10 13 102 9 40 8 57 -7
103 -9 31 -30 70 -45 88 -41 46 -44 66 -18 112 18 32 29 41 60 46 68 11 85 53
31 78 -22 10 -24 15 -18 48 l7 36 -50 -6 c-62 -7 -75 1 -71 44 3 32 5 34 47
37 24 2 54 10 67 19 22 14 23 20 19 72 -3 31 -11 82 -17 113 -9 51 -8 61 8 85
28 41 44 82 44 110 0 13 13 43 29 66 76 111 128 234 154 367 25 122 25 130 11
189 -7 31 -13 71 -14 89 0 29 3 32 28 32 16 0 47 -9 70 -20z m-4158 -140 c0
-5 -2 -10 -4 -10 -3 0 -8 5 -11 10 -3 6 -1 10 4 10 6 0 11 -4 11 -10z m-2350
-35 c0 -8 -7 -15 -15 -15 -8 0 -15 7 -15 15 0 8 7 15 15 15 8 0 15 -7 15 -15z
m3046 -592 c15 -45 58 -151 71 -177 11 -22 12 -34 4 -52 -6 -13 -14 -24 -19
-24 -8 0 -52 91 -58 120 -2 8 -10 42 -18 74 -8 33 -13 63 -10 68 9 14 24 9 30
-9z m514 -212 c5 -11 10 -36 10 -56 0 -41 43 -171 65 -195 8 -9 15 -28 15 -42
0 -31 -28 -46 -37 -20 -4 9 -12 22 -19 27 -30 25 -87 266 -69 294 10 17 23 13
35 -8z m-495 -106 c12 -32 30 -64 39 -70 25 -19 19 -85 -9 -85 -20 0 -41 32
-55 83 -7 26 -17 50 -21 53 -11 6 -12 68 -2 78 14 14 27 -2 48 -59z m-1595
-41 c0 -8 -4 -12 -10 -9 -5 3 -10 13 -10 21 0 8 5 12 10 9 6 -3 10 -13 10 -21z
m-106 -20 c13 -33 4 -42 -23 -25 -14 9 -9 41 8 41 5 0 12 -7 15 -16z m104 -45
c-18 -12 -23 8 -6 28 12 15 13 15 16 -2 2 -10 -2 -21 -10 -26z m1842 -4 c0
-26 -14 -33 -25 -15 -9 14 1 40 15 40 5 0 10 -11 10 -25z m-3340 -50 c0 -20
-5 -25 -25 -25 -30 0 -31 4 -7 29 24 26 32 25 32 -4z m3581 -22 c6 -16 19 -47
30 -70 21 -47 16 -73 -12 -73 -12 0 -21 10 -25 26 -9 37 -35 26 -59 -23 -11
-24 -31 -50 -44 -59 -24 -17 -24 -17 -18 12 16 88 80 214 109 214 5 0 13 -12
19 -27z m-211 8 c0 -12 -20 -25 -27 -18 -7 7 6 27 18 27 5 0 9 -4 9 -9z
m-1977 -108 c3 -25 0 -49 -7 -59 -10 -13 -13 -4 -14 52 -2 73 12 78 21 7z
m869 42 c0 -5 -5 -11 -11 -13 -6 -2 -11 4 -11 13 0 9 5 15 11 13 6 -2 11 -8
11 -13z m2598 -1031 c5 -38 14 -94 20 -124 6 -30 10 -142 9 -247 l-1 -193 -32
0 c-18 0 -55 7 -82 15 -27 8 -113 20 -192 27 -118 10 -142 14 -137 26 8 21 22
126 35 262 7 63 16 120 20 125 5 6 10 35 12 64 3 53 3 54 37 56 18 2 45 12 60
23 18 13 44 20 81 21 30 0 75 7 100 14 25 8 49 11 53 7 5 -4 13 -38 17 -76z
m-410 -55 c0 -5 -4 -9 -10 -9 -5 0 -10 7 -10 16 0 8 5 12 10 9 6 -3 10 -10 10
-16z m-130 -774 c0 -16 -6 -25 -15 -25 -16 0 -19 9 -9 34 9 25 24 19 24 -9z
m7 -81 c-3 -3 -12 -4 -19 -1 -8 3 -5 6 6 6 11 1 17 -2 13 -5z"/>
<path d="M9721 6010 c1 -71 -1 -133 -4 -137 -8 -7 -46 11 -92 43 -35 24 -131
64 -154 64 -27 -1 -63 -35 -79 -76 -18 -46 -29 -178 -13 -154 6 8 11 31 11 51
0 58 10 94 34 124 28 35 73 36 143 2 56 -27 135 -82 146 -103 21 -37 27 -4 27
151 0 110 -4 165 -11 165 -7 0 -10 -43 -8 -130z"/>
<path d="M9336 5629 c-3 -34 -6 -78 -5 -98 l1 -36 13 30 c15 33 20 165 6 165
-4 0 -11 -28 -15 -61z"/>
<path d="M16734 2991 c3 -5 36 -12 73 -16 38 -4 73 -10 78 -15 12 -8 49 -18
120 -30 87 -14 284 -76 302 -94 4 -3 17 -6 30 -6 13 0 23 -4 23 -10 0 -5 12
-12 28 -16 15 -3 36 -9 47 -14 11 -5 48 -19 83 -32 34 -12 62 -26 62 -30 0 -5
10 -8 23 -8 12 -1 33 -7 47 -15 14 -8 35 -14 47 -15 12 0 23 -4 25 -8 2 -4 35
-21 73 -36 39 -15 78 -32 89 -38 10 -5 53 -21 95 -34 42 -14 95 -34 118 -45
23 -11 58 -23 77 -26 20 -3 39 -10 42 -14 3 -5 19 -9 37 -9 49 0 24 14 -128
70 -77 28 -149 55 -160 59 -11 5 -40 17 -65 26 -25 10 -63 25 -85 35 -22 9
-71 29 -110 45 -38 15 -83 33 -100 40 -28 11 -93 36 -255 98 -151 58 -342 117
-378 117 -15 0 -52 7 -82 15 -60 16 -164 20 -156 6z"/>
<path d="M18286 2471 c-4 -6 -1 -13 6 -15 51 -13 157 -40 178 -43 14 -3 39
-11 57 -19 17 -8 49 -14 70 -14 22 0 75 -9 118 -20 62 -16 109 -20 229 -19
184 0 169 17 -23 25 -69 3 -171 14 -226 24 -55 10 -120 21 -144 24 -24 4 -49
10 -55 14 -14 8 -130 41 -172 49 -18 3 -35 0 -38 -6z"/>
<path d="M18238 5503 c12 -2 30 -2 40 0 9 3 -1 5 -23 4 -22 0 -30 -2 -17 -4z"/>
<path d="M11281 2332 c-93 -1 -160 -7 -168 -13 -19 -16 -17 -75 3 -83 9 -3
117 -6 240 -6 l224 0 0 54 0 55 -72 -2 c-40 -1 -142 -3 -227 -5z"/>
<path d="M11406 2181 c-18 -29 2 -140 23 -127 15 9 12 112 -3 125 -9 8 -16 8
-20 2z"/>
<path d="M11110 2154 c-13 -33 -13 -32 10 -44 17 -9 22 -7 30 15 5 13 7 32 4
40 -9 23 -33 18 -44 -11z"/>
<path d="M11207 2173 c-18 -17 -2 -103 19 -103 14 0 30 81 19 99 -7 12 -28 14
-38 4z"/>
<path d="M11297 2174 c-4 -4 -7 -22 -7 -41 0 -26 4 -33 19 -33 42 0 57 72 16
78 -12 2 -24 0 -28 -4z"/>
<path d="M11492 2140 c-11 -18 -10 -20 11 -20 29 0 37 7 30 26 -7 20 -26 17
-41 -6z"/>
<path d="M11580 2116 c0 -14 5 -26 10 -26 6 0 10 9 10 19 0 11 -4 23 -10 26
-6 4 -10 -5 -10 -19z"/>
<path d="M12670 1841 c-13 -25 -3 -51 20 -51 21 0 25 4 34 43 6 24 4 27 -18
27 -15 0 -30 -8 -36 -19z"/>
<path d="M12777 1825 c20 -42 56 -46 61 -6 4 28 -12 41 -50 41 l-28 0 17 -35z"/>
<path d="M12788 1729 c-34 -25 -36 -39 -5 -39 28 0 47 17 47 42 0 23 -8 22
-42 -3z"/>
<path d="M12667 1724 c-12 -12 4 -24 30 -24 21 0 24 2 13 15 -13 16 -32 20
-43 9z"/>
<path d="M10904 1525 c-1 -5 -5 -96 -7 -202 -4 -147 -2 -195 8 -203 8 -7 42
-8 96 -3 l84 8 2 65 c1 36 -1 56 -4 45 -7 -26 -43 -66 -54 -59 -15 9 -10 82 6
98 8 8 15 30 15 48 0 21 7 40 19 50 20 17 39 114 28 142 -7 17 -188 28 -193
11z m109 -189 c6 -16 -13 -58 -29 -63 -20 -6 -25 29 -9 53 17 27 30 30 38 10z"/>
<path d="M11243 1522 l-72 -3 -3 -188 c-2 -103 -2 -195 0 -205 3 -13 16 -16
72 -16 43 0 72 5 76 12 4 7 12 95 17 196 7 149 6 187 -5 196 -8 6 -43 10 -85
8z"/>
<path d="M11423 1520 c-22 -9 -29 -34 -35 -134 -3 -46 17 -60 32 -22 11 30 10
29 44 16 28 -10 32 -29 20 -89 -8 -40 -32 -53 -73 -41 l-31 9 0 -75 0 -74 59
0 c33 0 62 4 65 9 3 5 9 95 13 201 5 160 4 193 -8 201 -17 11 -57 11 -86 -1z"/>
<path d="M11588 1343 c-1 -101 -2 -193 -2 -205 -1 -22 3 -23 66 -24 46 -2 71
2 78 12 12 13 29 211 30 337 l0 68 -85 -2 -85 -2 -2 -184z"/>
<path d="M12630 1501 l-35 -6 -3 -111 c-2 -73 0 -114 7 -119 15 -9 14 -42 -4
-68 -8 -13 -17 -55 -21 -95 -11 -113 4 -119 251 -112 39 1 92 1 118 1 33 0 47
4 44 12 -2 7 -17 11 -35 9 -16 -2 -33 2 -37 8 -4 7 -8 118 -9 248 l-1 237
-120 1 c-66 1 -136 -1 -155 -5z m228 -143 c0 -57 3 -130 7 -162 7 -68 -1 -119
-18 -113 -14 5 -15 11 -16 201 l-1 149 -51 -7 c-36 -5 -56 -3 -67 6 -13 11
-10 14 24 19 21 3 58 7 81 8 l42 1 -1 -102z m-183 -78 c1 -91 3 -171 4 -177 0
-8 16 -13 41 -13 22 0 40 -5 40 -11 0 -6 -22 -9 -58 -7 l-58 2 -2 171 c-2 172
2 209 20 203 6 -2 11 -67 13 -168z m110 -200 c3 -5 1 -10 -4 -10 -6 0 -11 5
-11 10 0 6 2 10 4 10 3 0 8 -4 11 -10z"/>
<path d="M13236 1263 c-3 -3 -6 -61 -6 -128 0 -122 15 -235 31 -235 11 0 11 7
-1 49 -15 55 6 71 95 71 l71 0 12 -86 c6 -48 14 -89 17 -93 14 -14 24 30 22
99 -2 72 -1 75 21 78 39 6 55 -5 42 -28 -9 -16 -8 -22 5 -26 9 -4 18 -4 20 -2
9 9 7 103 -3 158 -7 36 -7 59 0 67 6 7 42 13 86 15 49 2 77 7 80 16 2 8 -8 12
-31 12 -51 0 -140 19 -148 31 -7 12 -208 7 -228 -5 -14 -9 -14 -66 -1 -102 17
-43 -20 -107 -51 -88 -5 3 -9 47 -9 99 0 86 -7 115 -24 98z"/>
<path d="M7063 1154 c7 -7 25 -9 242 -19 83 -4 193 -14 245 -21 52 -8 131 -19
175 -24 97 -10 268 -35 350 -50 33 -6 87 -15 120 -20 78 -11 288 -47 345 -60
25 -5 90 -16 145 -25 55 -9 132 -24 170 -32 39 -9 93 -19 120 -24 72 -10 211
-36 275 -50 71 -15 122 -17 127 -3 2 6 -39 17 -104 28 -192 31 -389 69 -454
86 -20 6 -50 10 -67 10 -17 0 -57 6 -89 14 -32 7 -89 19 -128 26 -150 25 -185
32 -350 61 -172 31 -219 38 -445 64 -69 8 -170 21 -224 30 -98 15 -466 22
-453 9z"/>
<path d="M12235 820 c3 -5 12 -7 20 -3 21 7 19 13 -6 13 -11 0 -18 -4 -14 -10z"/>
<path d="M12460 820 c0 -5 7 -10 16 -10 8 0 12 5 9 10 -3 6 -10 10 -16 10 -5
0 -9 -4 -9 -10z"/>
<path d="M12976 814 c-9 -22 -8 -24 9 -18 8 4 15 12 15 20 0 19 -16 18 -24 -2z"/>
<path d="M15184 662 c-6 -4 -13 -15 -17 -24 -3 -10 -16 -18 -27 -18 -17 0 -40
-32 -40 -56 0 -10 29 -3 40 11 7 8 17 15 22 15 13 0 0 -52 -15 -62 -7 -4 2 -8
21 -9 17 -1 46 -2 62 -3 17 0 30 2 30 7 0 4 -18 7 -40 7 -22 0 -40 5 -40 10 0
6 14 10 30 10 21 0 38 9 54 27 22 25 22 28 7 55 -10 19 -23 28 -36 26 -11 -1
-25 1 -30 4 -6 4 -16 4 -21 0z m61 -92 c-3 -5 -10 -10 -16 -10 -5 0 -9 5 -9
10 0 6 7 10 16 10 8 0 12 -4 9 -10z"/>
<path d="M14960 626 c0 -9 5 -16 10 -16 6 0 10 4 10 9 0 6 -4 13 -10 16 -5 3
-10 -1 -10 -9z"/>
<path d="M15041 613 c-6 -14 -9 -28 -6 -31 3 -3 5 0 5 6 0 7 7 12 15 12 8 0
15 6 15 14 0 26 -17 26 -29 -1z"/>
<path d="M15297 601 c-3 -24 -11 -47 -18 -52 -8 -4 -11 -11 -7 -14 3 -3 15 7
26 23 16 22 19 36 13 58 -7 28 -8 27 -14 -15z"/>
</g>
</svg>
